<svg width="32" height="32" viewBox="0 0 32 32" fill="none" xmlns="http://www.w3.org/2000/svg">
<path fill-rule="evenodd" clip-rule="evenodd" d="M27.6056 10.9587C27.6472 10.9955 27.6862 11.0352 27.7222 11.0775C27.7861 11.1524 27.8389 11.2336 27.8808 11.3187C27.9572 11.4739 28.0001 11.6486 28.0001 11.8333V15.3333C28.0001 15.9777 27.4778 16.5 26.8335 16.5C26.1891 16.5 25.6668 15.9777 25.6668 15.3333V14.6498L20.6583 19.6582C20.2027 20.1139 19.464 20.1139 19.0084 19.6582L15.1667 15.8165L11.325 19.6582C10.8694 20.1139 10.1307 20.1139 9.67508 19.6582C9.21947 19.2026 9.21947 18.4639 9.67508 18.0083L14.3417 13.3417C14.7974 12.8861 15.5361 12.8861 15.9917 13.3417L19.8334 17.1834L24.0168 13H23.3335C22.6891 13 22.1668 12.4777 22.1668 11.8333C22.1668 11.189 22.6891 10.6667 23.3335 10.6667H26.8236H26.8335C26.8632 10.6667 26.8928 10.6678 26.922 10.67C26.8892 10.6675 26.8564 10.6664 26.8236 10.6667M27.2701 10.7511C27.3902 10.7995 27.5039 10.8687 27.6056 10.9587Z" fill="black"/>
<path fill-rule="evenodd" clip-rule="evenodd" d="M5.2 4C5.86274 4 6.4 4.53726 6.4 5.2V22C6.4 23.9882 8.01178 25.6 10 25.6H26.8C27.4627 25.6 28 26.1373 28 26.8C28 27.4627 27.4627 28 26.8 28H10C6.68629 28 4 25.3137 4 22V5.2C4 4.53726 4.53726 4 5.2 4Z" fill="black"/>
</svg>
