<svg width="32" height="32" viewBox="0 0 32 32" fill="none" xmlns="http://www.w3.org/2000/svg">
<g clip-path="url(#clip0_21_1636)">
<path d="M4.68808 27.312C3.15992 25.836 1.941 24.0705 1.10246 22.1184C0.263912 20.1664 -0.177468 18.0668 -0.195929 15.9424C-0.21439 13.8179 0.190437 11.711 0.994931 9.74469C1.79943 7.77835 2.98748 5.99192 4.48976 4.48964C5.99204 2.98735 7.77847 1.7993 9.74481 0.994809C11.7112 0.190315 13.818 -0.214512 15.9425 -0.196051C18.067 -0.17759 20.1665 0.26379 22.1186 1.10233C24.0706 1.94088 25.8361 3.15979 27.3121 4.68796C30.2266 7.70559 31.8393 11.7472 31.8029 15.9424C31.7664 20.1375 30.0837 24.1505 27.1172 27.1171C24.1506 30.0836 20.1376 31.7663 15.9425 31.8027C11.7473 31.8392 7.70571 30.2265 4.68808 27.312ZM18.2401 16L22.7681 11.472L20.5121 9.21596L16.0001 13.744L11.4721 9.21596L9.21608 11.472L13.7441 16L9.21608 20.528L11.4721 22.784L16.0001 18.256L20.5281 22.784L22.7841 20.528L18.2561 16H18.2401Z" fill="black"/>
</g>
<defs>
<clipPath id="clip0_21_1636">
<rect width="32" height="32" fill="white"/>
</clipPath>
</defs>
</svg>
