<svg width="32" height="32" viewBox="0 0 32 32" fill="none" xmlns="http://www.w3.org/2000/svg">
<path fill-rule="evenodd" clip-rule="evenodd" d="M12.7274 8.24847C10.9199 8.24847 9.45465 9.71372 9.45465 11.5212C9.45465 13.3287 10.9199 14.7939 12.7274 14.7939C14.5348 14.7939 16.0001 13.3287 16.0001 11.5212C16.0001 10.6942 15.6933 9.93879 15.1874 9.36264L15.1753 9.34893C14.5758 8.67384 13.7012 8.24847 12.7274 8.24847ZM18.1819 11.5212C18.1819 10.5299 17.9175 9.60039 17.4553 8.79932C17.6719 8.65472 17.9058 8.53591 18.1525 8.44609C18.6663 8.25894 19.2188 8.20353 19.7596 8.28493C20.3004 8.36632 20.8121 8.58193 21.2481 8.91205C21.6841 9.24217 22.0304 9.67628 22.2554 10.1747C22.4804 10.6731 22.5769 11.22 22.5361 11.7654C22.4953 12.3107 22.3185 12.8371 22.0218 13.2965C21.7252 13.7559 21.3182 14.1337 20.8379 14.3953C20.3577 14.6568 19.8195 14.7939 19.2727 14.7939C19.2692 14.7939 19.2658 14.7939 19.2624 14.794C18.7596 14.7921 18.0505 14.6505 17.4298 14.2867C17.9078 13.4759 18.1819 12.5305 18.1819 11.5212ZM18.8149 16.9548C20.4274 18.3189 21.4545 20.2355 21.4545 22.4303C21.4545 23.0328 20.9661 23.5212 20.3636 23.5212C19.7611 23.5212 19.2727 23.0328 19.2727 22.4303C19.2727 19.5692 16.5061 16.9757 12.7273 16.9757C8.94845 16.9757 6.18182 19.5692 6.18182 22.4303C6.18182 23.0328 5.6934 23.5212 5.09091 23.5212C4.48842 23.5212 4 23.0328 4 22.4303C4 19.2888 6.10442 16.7172 9.01763 15.52C7.9444 14.5238 7.27283 13.1009 7.27283 11.5212C7.27283 8.50873 9.71491 6.06665 12.7274 6.06665C13.9553 6.06665 15.0886 6.47244 16.0002 7.15723C16.4272 6.83705 16.9005 6.58005 17.4058 6.39602C18.2622 6.0841 19.1831 5.99175 20.0844 6.12741C20.9857 6.26307 21.8386 6.62242 22.5652 7.17262C23.2918 7.72282 23.869 8.44634 24.244 9.27706C24.619 10.1078 24.7798 11.0192 24.7118 11.9281C24.6438 12.837 24.3492 13.7144 23.8548 14.4801C23.6074 14.8632 23.3139 15.2122 22.9822 15.52C25.8955 16.7172 28 19.2888 28 22.4304C28 23.0328 27.5116 23.5213 26.9091 23.5213C26.3066 23.5213 25.8181 23.0328 25.8181 22.4304C25.8181 19.5693 23.0515 16.9758 19.2727 16.9758C19.1309 16.9758 18.9774 16.9692 18.8149 16.9548Z" fill="black"/>
</svg>
