<svg width="32" height="32" viewBox="0 0 32 32" fill="none" xmlns="http://www.w3.org/2000/svg">
<path d="M27.9524 19.3116C27.1922 21.7939 25.6685 23.9732 23.5983 25.5393C21.7807 26.9076 19.6178 27.7421 17.3524 27.9492C15.087 28.1563 12.8087 27.7277 10.7733 26.7116C8.73786 25.6955 7.02585 24.1321 5.82942 22.1968C4.633 20.2616 3.99951 18.0311 4.00006 15.7557C3.99188 13.0999 4.85507 10.5147 6.45719 8.39678C8.02296 6.32611 10.2018 4.80212 12.6836 4.0417C12.8472 3.99132 13.0214 3.9865 13.1875 4.02774C13.3536 4.06899 13.5053 4.15475 13.6263 4.2758C13.7473 4.39685 13.8331 4.54861 13.8743 4.71475C13.9156 4.88089 13.9107 5.05514 13.8604 5.21875C13.3177 7.01425 13.2722 8.92339 13.7287 10.7427C14.1853 12.5621 15.1267 14.2234 16.4528 15.5498C17.7789 16.8761 19.4398 17.8178 21.2588 18.2744C23.0777 18.7311 24.9864 18.6856 26.7815 18.1428C26.9451 18.0924 27.1193 18.0876 27.2854 18.1288C27.4515 18.1701 27.6032 18.2558 27.7243 18.3769C27.8453 18.4979 27.931 18.6497 27.9723 18.8158C28.0135 18.982 28.0087 19.1562 27.9583 19.3198L27.9524 19.3116Z" fill="black"/>
</svg>
