<svg width="32" height="32" viewBox="0 0 32 32" fill="none" xmlns="http://www.w3.org/2000/svg">
<path d="M15.94 23.2C16.36 23.2 16.7152 23.0548 17.0056 22.7644C17.296 22.474 17.4408 22.1192 17.44 21.7C17.44 21.28 17.2952 20.9248 17.0056 20.6344C16.716 20.344 16.3608 20.1992 15.94 20.2C15.52 20.2 15.1652 20.3452 14.8756 20.6356C14.586 20.926 14.4408 21.2808 14.44 21.7C14.44 22.12 14.5852 22.4752 14.8756 22.7656C15.166 23.056 15.5208 23.2008 15.94 23.2ZM14.86 18.58H17.08C17.08 17.92 17.1552 17.4 17.3056 17.02C17.456 16.64 17.8808 16.12 18.58 15.46C19.1 14.94 19.51 14.4448 19.81 13.9744C20.11 13.504 20.26 12.9392 20.26 12.28C20.26 11.16 19.85 10.3 19.03 9.7C18.21 9.1 17.24 8.8 16.12 8.8C14.98 8.8 14.0552 9.1 13.3456 9.7C12.636 10.3 12.1408 11.02 11.86 11.86L13.84 12.64C13.94 12.28 14.1652 11.89 14.5156 11.47C14.866 11.05 15.4008 10.84 16.12 10.84C16.76 10.84 17.24 11.0152 17.56 11.3656C17.88 11.716 18.04 12.1008 18.04 12.52C18.04 12.92 17.92 13.2952 17.68 13.6456C17.44 13.996 17.14 14.3208 16.78 14.62C15.9 15.4 15.36 15.99 15.16 16.39C14.96 16.79 14.86 17.52 14.86 18.58ZM16 28C14.34 28 12.78 27.6852 11.32 27.0556C9.86 26.426 8.59 25.5708 7.51 24.49C6.43 23.41 5.5752 22.14 4.9456 20.68C4.316 19.22 4.0008 17.66 4 16C4 14.34 4.3152 12.78 4.9456 11.32C5.576 9.86 6.4308 8.59 7.51 7.51C8.59 6.43 9.86 5.5752 11.32 4.9456C12.78 4.316 14.34 4.0008 16 4C17.66 4 19.22 4.3152 20.68 4.9456C22.14 5.576 23.41 6.4308 24.49 7.51C25.57 8.59 26.4252 9.86 27.0556 11.32C27.686 12.78 28.0008 14.34 28 16C28 17.66 27.6848 19.22 27.0544 20.68C26.424 22.14 25.5692 23.41 24.49 24.49C23.41 25.57 22.14 26.4252 20.68 27.0556C19.22 27.686 17.66 28.0008 16 28ZM16 25.6C18.68 25.6 20.95 24.67 22.81 22.81C24.67 20.95 25.6 18.68 25.6 16C25.6 13.32 24.67 11.05 22.81 9.19C20.95 7.33 18.68 6.4 16 6.4C13.32 6.4 11.05 7.33 9.19 9.19C7.33 11.05 6.4 13.32 6.4 16C6.4 18.68 7.33 20.95 9.19 22.81C11.05 24.67 13.32 25.6 16 25.6Z" fill="black"/>
</svg>
