<svg width="32" height="32" viewBox="0 0 32 32" fill="none" xmlns="http://www.w3.org/2000/svg">
<path d="M17.9151 12.6877C17.9151 12.4339 17.8143 12.1905 17.6348 12.011C17.4553 11.8315 17.2119 11.7307 16.9581 11.7307H9.30199C9.04817 11.7307 8.80475 11.8315 8.62527 12.011C8.4458 12.1905 8.34497 12.4339 8.34497 12.6877C8.34497 12.9415 8.4458 13.185 8.62527 13.3644C8.80475 13.5439 9.04817 13.6447 9.30199 13.6447H16.9581C17.2119 13.6447 17.4553 13.5439 17.6348 13.3644C17.8143 13.185 17.9151 12.9415 17.9151 12.6877ZM16.6391 16.5158C16.6391 16.262 16.5383 16.0186 16.3588 15.8391C16.1793 15.6596 15.9359 15.5588 15.6821 15.5588H9.30199C9.04817 15.5588 8.80475 15.6596 8.62527 15.8391C8.4458 16.0186 8.34497 16.262 8.34497 16.5158C8.34497 16.7696 8.4458 17.013 8.62527 17.1925C8.80475 17.372 9.04817 17.4728 9.30199 17.4728H15.6821C15.9359 17.4728 16.1793 17.372 16.3588 17.1925C16.5383 17.013 16.6391 16.7696 16.6391 16.5158ZM16.9581 19.3868C17.2119 19.3868 17.4553 19.4877 17.6348 19.6671C17.8143 19.8466 17.9151 20.09 17.9151 20.3439C17.9151 20.5977 17.8143 20.8411 17.6348 21.0206C17.4553 21.2 17.2119 21.3009 16.9581 21.3009H9.30199C9.04817 21.3009 8.80475 21.2 8.62527 21.0206C8.4458 20.8411 8.34497 20.5977 8.34497 20.3439C8.34497 20.09 8.4458 19.8466 8.62527 19.6671C8.80475 19.4877 9.04817 19.3868 9.30199 19.3868H16.9581Z" fill="black"/>
<path fill-rule="evenodd" clip-rule="evenodd" d="M8.34514 28H24.9334C25.8641 28 26.7566 27.6303 27.4147 26.9722C28.0728 26.3141 28.4425 25.4216 28.4425 24.4909V17.4728C28.4425 17.219 28.3416 16.9756 28.1622 16.7961C27.9827 16.6166 27.7393 16.5158 27.4855 16.5158H23.3384V6.55392C23.3384 4.73814 21.2853 3.68159 19.8076 4.73686L19.5843 4.89637C19.0953 5.24348 18.5103 5.42952 17.9107 5.42861C17.311 5.42769 16.7265 5.23986 16.2386 4.89126C15.424 4.31152 14.449 4 13.4492 4C12.4494 4 11.4744 4.31152 10.6598 4.89126C10.1719 5.23986 9.58745 5.42769 8.98779 5.42861C8.38813 5.42952 7.8031 5.24348 7.31411 4.89637L7.09081 4.73686C5.61318 3.68159 3.56006 4.73686 3.56006 6.55392V23.2149C3.56006 24.484 4.0642 25.7011 4.96158 26.5985C5.85895 27.4959 7.07606 28 8.34514 28ZM11.7725 6.44801C12.2625 6.10022 12.8484 5.91339 13.4492 5.91339C14.05 5.91339 14.636 6.10022 15.1259 6.44801C15.9384 7.02875 16.9118 7.34149 17.9104 7.34264C18.9091 7.34378 19.8832 7.03327 20.697 6.45439L20.9203 6.29488C20.968 6.26095 21.024 6.24078 21.0824 6.23657C21.1407 6.23236 21.1991 6.24428 21.2512 6.27102C21.3032 6.29776 21.3469 6.3383 21.3774 6.38819C21.408 6.43808 21.4242 6.49542 21.4244 6.55392V24.4909C21.4244 25.0652 21.5622 25.6075 21.8072 26.086H8.34514C7.58369 26.086 6.85343 25.7835 6.315 25.2451C5.77657 24.7066 5.47409 23.9764 5.47409 23.2149V6.55392C5.47424 6.49542 5.49048 6.43808 5.52103 6.38819C5.55157 6.3383 5.59525 6.29776 5.64728 6.27102C5.69931 6.24428 5.75769 6.23236 5.81604 6.23657C5.87439 6.24078 5.93046 6.26095 5.97812 6.29488L6.20142 6.45439C7.0152 7.03327 7.98933 7.34378 8.988 7.34264C9.98666 7.34149 10.9601 7.02875 11.7725 6.44801ZM23.3384 24.4909V18.4298H26.5284V24.4909C26.5284 24.914 26.3604 25.3197 26.0613 25.6188C25.7621 25.9179 25.3564 26.086 24.9334 26.086C24.5104 26.086 24.1047 25.9179 23.8056 25.6188C23.5064 25.3197 23.3384 24.914 23.3384 24.4909Z" fill="black"/>
</svg>
