<svg width="32" height="32" viewBox="0 0 32 32" fill="none" xmlns="http://www.w3.org/2000/svg">
<path d="M15.9999 23C16.2651 23 16.5194 23.1054 16.707 23.2929C16.8945 23.4804 16.9999 23.7348 16.9999 24V25C16.9999 25.2652 16.8945 25.5196 16.707 25.7071C16.5194 25.8946 16.2651 26 15.9999 26C15.7347 26 15.4803 25.8946 15.2928 25.7071C15.1052 25.5196 14.9999 25.2652 14.9999 25V24C14.9999 23.7348 15.1052 23.4804 15.2928 23.2929C15.4803 23.1054 15.7347 23 15.9999 23ZM22.3639 20.95L23.0709 21.657C23.253 21.8456 23.3538 22.0982 23.3515 22.3604C23.3493 22.6226 23.2441 22.8734 23.0587 23.0588C22.8733 23.2442 22.6225 23.3494 22.3603 23.3517C22.0981 23.354 21.8455 23.2532 21.6569 23.071L20.9499 22.364C20.7677 22.1754 20.6669 21.9228 20.6692 21.6606C20.6715 21.3984 20.7766 21.1476 20.962 20.9622C21.1475 20.7768 21.3983 20.6716 21.6605 20.6693C21.9227 20.667 22.1753 20.7678 22.3639 20.95ZM9.63587 20.95C9.81583 20.7707 10.0573 20.6665 10.3113 20.6588C10.5652 20.651 10.8126 20.7402 11.0031 20.9082C11.1937 21.0763 11.3132 21.3106 11.3373 21.5635C11.3614 21.8164 11.2883 22.069 11.1329 22.27L11.0499 22.364L10.3429 23.071C10.1629 23.2503 9.92143 23.3545 9.66748 23.3622C9.41354 23.37 9.16616 23.2808 8.97559 23.1128C8.78502 22.9447 8.66556 22.7104 8.64147 22.4575C8.61738 22.2046 8.69046 21.952 8.84587 21.751L8.92887 21.657L9.63587 20.95ZM15.9999 10C17.5912 10 19.1173 10.6321 20.2425 11.7574C21.3677 12.8826 21.9999 14.4087 21.9999 16C21.9999 17.5913 21.3677 19.1174 20.2425 20.2426C19.1173 21.3679 17.5912 22 15.9999 22C14.4086 22 12.8824 21.3679 11.7572 20.2426C10.632 19.1174 9.99987 17.5913 9.99987 16C9.99987 14.4087 10.632 12.8826 11.7572 11.7574C12.8824 10.6321 14.4086 10 15.9999 10ZM7.99987 15C8.25475 15.0003 8.4999 15.0979 8.68524 15.2728C8.87057 15.4478 8.9821 15.687 8.99704 15.9414C9.01198 16.1958 8.92919 16.4464 8.7656 16.6418C8.60201 16.8373 8.36996 16.9629 8.11687 16.993L7.99987 17H6.99987C6.74499 16.9997 6.49984 16.9021 6.3145 16.7272C6.12916 16.5522 6.01763 16.313 6.0027 16.0586C5.98776 15.8042 6.07054 15.5536 6.23413 15.3582C6.39772 15.1627 6.62977 15.0371 6.88287 15.007L6.99987 15H7.99987ZM24.9999 15C25.2651 15 25.5194 15.1054 25.707 15.2929C25.8945 15.4804 25.9999 15.7348 25.9999 16C25.9999 16.2652 25.8945 16.5196 25.707 16.7071C25.5194 16.8946 25.2651 17 24.9999 17H23.9999C23.7346 17 23.4803 16.8946 23.2928 16.7071C23.1052 16.5196 22.9999 16.2652 22.9999 16C22.9999 15.7348 23.1052 15.4804 23.2928 15.2929C23.4803 15.1054 23.7346 15 23.9999 15H24.9999ZM8.92887 8.929C9.10106 8.75682 9.33016 8.65339 9.57319 8.63811C9.81621 8.62283 10.0565 8.69675 10.2489 8.846L10.3429 8.929L11.0499 9.636C11.2292 9.81596 11.3333 10.0574 11.3411 10.3114C11.3489 10.5653 11.2597 10.8127 11.0916 11.0033C10.9236 11.1938 10.6893 11.3133 10.4364 11.3374C10.1835 11.3615 9.93086 11.2884 9.72987 11.133L9.63587 11.05L8.92887 10.343C8.7414 10.1555 8.63608 9.90116 8.63608 9.636C8.63608 9.37084 8.7414 9.11653 8.92887 8.929ZM23.0709 8.929C23.2583 9.11653 23.3637 9.37084 23.3637 9.636C23.3637 9.90116 23.2583 10.1555 23.0709 10.343L22.3639 11.05C22.2716 11.1455 22.1613 11.2217 22.0393 11.2741C21.9173 11.3265 21.786 11.3541 21.6533 11.3553C21.5205 11.3564 21.3888 11.3311 21.2659 11.2808C21.143 11.2305 21.0314 11.1563 20.9375 11.0624C20.8436 10.9685 20.7693 10.8569 20.719 10.734C20.6688 10.6111 20.6435 10.4794 20.6446 10.3466C20.6458 10.2138 20.6734 10.0826 20.7258 9.9606C20.7782 9.83859 20.8544 9.72825 20.9499 9.636L21.6569 8.929C21.8444 8.74153 22.0987 8.63621 22.3639 8.63621C22.629 8.63621 22.8833 8.74153 23.0709 8.929ZM15.9999 6C16.2651 6 16.5194 6.10536 16.707 6.29289C16.8945 6.48043 16.9999 6.73478 16.9999 7V8C16.9999 8.26522 16.8945 8.51957 16.707 8.70711C16.5194 8.89464 16.2651 9 15.9999 9C15.7347 9 15.4803 8.89464 15.2928 8.70711C15.1052 8.51957 14.9999 8.26522 14.9999 8V7C14.9999 6.73478 15.1052 6.48043 15.2928 6.29289C15.4803 6.10536 15.7347 6 15.9999 6Z" fill="black"/>
</svg>
