<svg width="145" height="40" viewBox="0 0 145 40" fill="none" xmlns="http://www.w3.org/2000/svg">
<circle cx="20.6875" cy="20" r="20" fill="#696FFB"/>
<ellipse cx="26.8414" cy="26.1539" rx="11.2821" ry="11.2821" fill="#B8BBFF"/>
<ellipse cx="14.5338" cy="13.8461" rx="11.2821" ry="11.2821" fill="#B8BBFF"/>
<ellipse cx="20.6871" cy="20" rx="8.33333" ry="8.33333" fill="white"/>
<path d="M142.67 30C142.292 30 142.005 29.9486 141.808 29.8457C141.62 29.7429 141.461 29.5286 141.332 29.2029L141.05 28.47C140.715 28.7529 140.394 29.0014 140.085 29.2157C139.777 29.43 139.455 29.6143 139.121 29.7686C138.795 29.9143 138.444 30.0214 138.067 30.09C137.698 30.1671 137.287 30.2057 136.832 30.2057C136.224 30.2057 135.671 30.1286 135.174 29.9743C134.677 29.8114 134.252 29.5757 133.901 29.2671C133.558 28.9586 133.292 28.5771 133.104 28.1229C132.915 27.66 132.821 27.1286 132.821 26.5286C132.821 26.0571 132.941 25.5729 133.181 25.0757C133.421 24.5786 133.837 24.1286 134.428 23.7257C135.02 23.3143 135.817 22.9714 136.82 22.6971C137.822 22.4229 139.087 22.2686 140.612 22.2343V21.6686C140.612 20.8886 140.45 20.3271 140.124 19.9843C139.807 19.6329 139.352 19.4571 138.761 19.4571C138.29 19.4571 137.904 19.5086 137.604 19.6114C137.304 19.7143 137.034 19.83 136.794 19.9586C136.562 20.0871 136.335 20.2029 136.112 20.3057C135.89 20.4086 135.624 20.46 135.315 20.46C135.041 20.46 134.805 20.3957 134.608 20.2671C134.42 20.13 134.27 19.9629 134.158 19.7657L133.438 18.5186C134.244 17.8071 135.135 17.28 136.112 16.9371C137.098 16.5857 138.152 16.41 139.275 16.41C140.081 16.41 140.805 16.5429 141.448 16.8086C142.1 17.0657 142.648 17.43 143.094 17.9014C143.548 18.3643 143.895 18.9171 144.135 19.56C144.375 20.2029 144.495 20.9057 144.495 21.6686V30H142.67ZM138.092 27.57C138.607 27.57 139.057 27.48 139.442 27.3C139.828 27.12 140.218 26.8286 140.612 26.4257V24.5743C139.815 24.6086 139.16 24.6771 138.645 24.78C138.131 24.8829 137.724 25.0114 137.424 25.1657C137.124 25.32 136.914 25.4957 136.794 25.6929C136.682 25.89 136.627 26.1043 136.627 26.3357C136.627 26.79 136.751 27.1114 137 27.3C137.248 27.48 137.612 27.57 138.092 27.57Z" fill="#696FFB"/>
<path d="M127.848 30.2057C127.214 30.2057 126.653 30.1157 126.164 29.9357C125.684 29.7471 125.277 29.4857 124.942 29.1514C124.617 28.8085 124.368 28.3971 124.197 27.9171C124.025 27.4371 123.94 26.9014 123.94 26.31V19.4185H122.808C122.602 19.4185 122.427 19.3543 122.281 19.2257C122.135 19.0885 122.062 18.8914 122.062 18.6343V17.0785L124.184 16.6671L124.968 13.4143C125.071 13.0028 125.362 12.7971 125.842 12.7971H127.925V16.6928H131.165V19.4185H127.925V26.04C127.925 26.3485 127.998 26.6057 128.144 26.8114C128.298 27.0085 128.517 27.1071 128.8 27.1071C128.945 27.1071 129.065 27.0943 129.16 27.0685C129.263 27.0343 129.348 27 129.417 26.9657C129.494 26.9228 129.562 26.8885 129.622 26.8628C129.691 26.8285 129.768 26.8114 129.854 26.8114C129.974 26.8114 130.068 26.8414 130.137 26.9014C130.214 26.9528 130.291 27.0385 130.368 27.1585L131.577 29.0485C131.062 29.4343 130.484 29.7257 129.841 29.9228C129.198 30.1114 128.534 30.2057 127.848 30.2057Z" fill="#696FFB"/>
<path d="M118.512 30C118.135 30 117.848 29.9486 117.651 29.8457C117.462 29.7429 117.304 29.5286 117.175 29.2029L116.892 28.47C116.558 28.7529 116.236 29.0014 115.928 29.2157C115.619 29.43 115.298 29.6143 114.964 29.7686C114.638 29.9143 114.286 30.0214 113.909 30.09C113.541 30.1671 113.129 30.2057 112.675 30.2057C112.066 30.2057 111.514 30.1286 111.016 29.9743C110.519 29.8114 110.095 29.5757 109.744 29.2671C109.401 28.9586 109.135 28.5771 108.946 28.1229C108.758 27.66 108.664 27.1286 108.664 26.5286C108.664 26.0571 108.784 25.5729 109.024 25.0757C109.264 24.5786 109.679 24.1286 110.271 23.7257C110.862 23.3143 111.659 22.9714 112.662 22.6971C113.665 22.4229 114.929 22.2686 116.455 22.2343V21.6686C116.455 20.8886 116.292 20.3271 115.966 19.9843C115.649 19.6329 115.195 19.4571 114.604 19.4571C114.132 19.4571 113.746 19.5086 113.446 19.6114C113.146 19.7143 112.876 19.83 112.636 19.9586C112.405 20.0871 112.178 20.2029 111.955 20.3057C111.732 20.4086 111.466 20.46 111.158 20.46C110.884 20.46 110.648 20.3957 110.451 20.2671C110.262 20.13 110.112 19.9629 110.001 19.7657L109.281 18.5186C110.086 17.8071 110.978 17.28 111.955 16.9371C112.941 16.5857 113.995 16.41 115.118 16.41C115.924 16.41 116.648 16.5429 117.291 16.8086C117.942 17.0657 118.491 17.43 118.936 17.9014C119.391 18.3643 119.738 18.9171 119.978 19.56C120.218 20.2029 120.338 20.9057 120.338 21.6686V30H118.512ZM113.935 27.57C114.449 27.57 114.899 27.48 115.285 27.3C115.671 27.12 116.061 26.8286 116.455 26.4257V24.5743C115.658 24.6086 115.002 24.6771 114.488 24.78C113.974 24.8829 113.566 25.0114 113.266 25.1657C112.966 25.32 112.756 25.4957 112.636 25.6929C112.525 25.89 112.469 26.1043 112.469 26.3357C112.469 26.79 112.594 27.1114 112.842 27.3C113.091 27.48 113.455 27.57 113.935 27.57Z" fill="#696FFB"/>
<path d="M107.219 20.6271C107.219 21.9814 106.983 23.2328 106.512 24.3814C106.049 25.5214 105.393 26.5114 104.545 27.3514C103.696 28.1828 102.672 28.8343 101.472 29.3057C100.28 29.7686 98.956 30 97.4988 30H90.2217V11.2671H97.4988C98.956 11.2671 100.28 11.5028 101.472 11.9743C102.672 12.4457 103.696 13.0971 104.545 13.9285C105.393 14.76 106.049 15.75 106.512 16.8985C106.983 18.0385 107.219 19.2814 107.219 20.6271ZM102.77 20.6271C102.77 19.7014 102.65 18.8657 102.41 18.12C102.17 17.3743 101.823 16.7443 101.369 16.23C100.923 15.7071 100.375 15.3085 99.7231 15.0343C99.0717 14.7514 98.3303 14.61 97.4988 14.61H94.5931V26.6571H97.4988C98.3303 26.6571 99.0717 26.52 99.7231 26.2457C100.375 25.9628 100.923 25.5643 101.369 25.05C101.823 24.5271 102.17 23.8928 102.41 23.1471C102.65 22.4014 102.77 21.5614 102.77 20.6271Z" fill="#696FFB"/>
<path d="M75.3054 30V16.6671H77.774C78.0226 16.6671 78.2283 16.7228 78.3911 16.8343C78.5626 16.9457 78.6826 17.1128 78.7511 17.3357L78.9826 18.1071C79.2397 17.8671 79.5054 17.6443 79.7797 17.4385C80.054 17.2328 80.3454 17.0614 80.654 16.9243C80.9711 16.7785 81.3097 16.6671 81.6697 16.59C82.0383 16.5043 82.4368 16.4614 82.8654 16.4614C83.594 16.4614 84.2368 16.59 84.794 16.8471C85.3597 17.0957 85.8354 17.4471 86.2211 17.9014C86.6068 18.3471 86.8983 18.8828 87.0954 19.5085C87.2926 20.1257 87.3911 20.7985 87.3911 21.5271V30H83.4054V21.5271C83.4054 20.8757 83.2554 20.37 82.9554 20.01C82.6554 19.6414 82.214 19.4571 81.6311 19.4571C81.194 19.4571 80.7826 19.5514 80.3969 19.74C80.0111 19.9285 79.6426 20.1814 79.2911 20.4985V30H75.3054Z" fill="#696FFB"/>
<path d="M72.0869 16.6671V30H68.1012V16.6671H72.0869ZM72.5498 13.0157C72.5498 13.3328 72.4855 13.6328 72.3569 13.9157C72.2284 14.19 72.0526 14.4343 71.8298 14.6485C71.6069 14.8543 71.3455 15.0214 71.0455 15.15C70.7541 15.27 70.4412 15.33 70.1069 15.33C69.7812 15.33 69.4769 15.27 69.1941 15.15C68.9112 15.0214 68.6584 14.8543 68.4355 14.6485C68.2212 14.4343 68.0498 14.19 67.9212 13.9157C67.8012 13.6328 67.7412 13.3328 67.7412 13.0157C67.7412 12.69 67.8012 12.3857 67.9212 12.1028C68.0498 11.82 68.2212 11.5714 68.4355 11.3571C68.6584 11.1428 68.9112 10.9757 69.1941 10.8557C69.4769 10.7357 69.7812 10.6757 70.1069 10.6757C70.4412 10.6757 70.7541 10.7357 71.0455 10.8557C71.3455 10.9757 71.6069 11.1428 71.8298 11.3571C72.0526 11.5714 72.2284 11.82 72.3569 12.1028C72.4855 12.3857 72.5498 12.69 72.5498 13.0157Z" fill="#696FFB"/>
<path d="M65.7192 11.2671V14.61H58.0306V19.3543H64.4335V22.71H58.0306V30H53.6592V11.2671H65.7192Z" fill="#696FFB"/>
</svg>
