<svg width="32" height="32" viewBox="0 0 32 32" fill="none" xmlns="http://www.w3.org/2000/svg">
<path d="M15.4274 26.8387C15.4274 26.5307 15.5497 26.2353 15.7675 26.0176C15.9853 25.7998 16.2807 25.6774 16.5887 25.6774H25.879C25.9816 25.6774 26.0801 25.6366 26.1527 25.564C26.2253 25.4914 26.2661 25.393 26.2661 25.2903V6.70968C26.2661 6.60701 26.2253 6.50855 26.1527 6.43596C26.0801 6.36336 25.9816 6.32258 25.879 6.32258H16.5887C16.2807 6.32258 15.9853 6.20023 15.7675 5.98245C15.5497 5.76466 15.4274 5.46928 15.4274 5.16129C15.4274 4.8533 15.5497 4.55792 15.7675 4.34013C15.9853 4.12235 16.2807 4 16.5887 4H25.879C27.3747 4 28.5887 5.21394 28.5887 6.70968V25.2903C28.5887 26.009 28.3032 26.6982 27.795 27.2064C27.2868 27.7145 26.5976 28 25.879 28H16.5887C16.2807 28 15.9853 27.8777 15.7675 27.6599C15.5497 27.4421 15.4274 27.1467 15.4274 26.8387Z" fill="black"/>
<path d="M22.1816 17.7265C22.1816 18.1371 22.0185 18.531 21.7281 18.8213C21.4377 19.1117 21.0439 19.2748 20.6332 19.2748H13.1142C13.0786 19.8261 13.0337 20.3742 12.9811 20.9254L12.9346 21.3977C12.9173 21.5757 12.8573 21.7469 12.7598 21.8967C12.6622 22.0466 12.5299 22.1707 12.3742 22.2585C12.2184 22.3464 12.0438 22.3953 11.865 22.4013C11.6863 22.4072 11.5088 22.3699 11.3475 22.2926C8.51704 20.9361 5.95467 19.0798 3.78366 16.8129L3.73721 16.7649C3.53791 16.5571 3.42664 16.2802 3.42664 15.9923C3.42664 15.7043 3.53791 15.4275 3.73721 15.2196L3.78366 15.1716C5.95465 12.9047 8.51703 11.0484 11.3475 9.69188C11.5088 9.61458 11.6863 9.57731 11.865 9.58326C12.0438 9.5892 12.2184 9.63816 12.3742 9.726C12.5299 9.81383 12.6622 9.93795 12.7598 10.0878C12.8573 10.2377 12.9173 10.4089 12.9346 10.5868L12.9811 11.0591C13.0337 11.6088 13.0786 12.1585 13.1142 12.7097H20.6332C21.0439 12.7097 21.4377 12.8728 21.7281 13.1632C22.0185 13.4536 22.1816 13.8474 22.1816 14.2581V17.7265Z" fill="black"/>
</svg>
