<svg width="32" height="32" viewBox="0 0 32 32" fill="none" xmlns="http://www.w3.org/2000/svg">
<path fill-rule="evenodd" clip-rule="evenodd" d="M8.05263 6.52632C7.38261 6.52632 6.74003 6.79248 6.26626 7.26626C5.79248 7.74003 5.52632 8.38261 5.52632 9.05263V19.1579C5.52632 19.8279 5.79248 20.4705 6.26626 20.9443C6.74003 21.418 7.38261 21.6842 8.05263 21.6842H11.8421C12.1771 21.6842 12.4984 21.8173 12.7353 22.0542L15.6316 24.9505L18.5279 22.0542C18.7648 21.8173 19.086 21.6842 19.4211 21.6842H23.2105C23.8805 21.6842 24.5231 21.418 24.9969 20.9443C25.4707 20.4705 25.7368 19.8279 25.7368 19.1579V9.05263C25.7368 8.38261 25.4707 7.74003 24.9969 7.26626C24.5231 6.79248 23.8805 6.52632 23.2105 6.52632H8.05263ZM4.47988 5.47988C5.42743 4.53233 6.71259 4 8.05263 4H23.2105C24.5506 4 25.8357 4.53233 26.7833 5.47988C27.7308 6.42743 28.2632 7.71259 28.2632 9.05263V19.1579C28.2632 20.4979 27.7308 21.7831 26.7833 22.7306C25.8357 23.6782 24.5506 24.2105 23.2105 24.2105H19.9443L16.5248 27.63C16.0315 28.1233 15.2317 28.1233 14.7384 27.63L11.3189 24.2105H8.05263C6.71259 24.2105 5.42743 23.6782 4.47988 22.7306C3.53233 21.7831 3 20.4979 3 19.1579V9.05263C3 7.71259 3.53233 6.42743 4.47988 5.47988ZM9.31579 11.5789C9.31579 10.8813 9.88132 10.3158 10.5789 10.3158H20.6842C21.3818 10.3158 21.9474 10.8813 21.9474 11.5789C21.9474 12.2766 21.3818 12.8421 20.6842 12.8421H10.5789C9.88132 12.8421 9.31579 12.2766 9.31579 11.5789ZM9.31579 16.6316C9.31579 15.934 9.88132 15.3684 10.5789 15.3684H18.1579C18.8555 15.3684 19.4211 15.934 19.4211 16.6316C19.4211 17.3292 18.8555 17.8947 18.1579 17.8947H10.5789C9.88132 17.8947 9.31579 17.3292 9.31579 16.6316Z" fill="black"/>
</svg>
