<svg width="32" height="32" viewBox="0 0 32 32" fill="none" xmlns="http://www.w3.org/2000/svg">
<path d="M15.1359 8.35163C15.3613 8.12647 15.6669 8 15.9855 8C16.3041 8 16.6097 8.12647 16.8352 8.35163L23.6484 15.1648C23.8735 15.3903 24 15.6959 24 16.0145C24 16.3331 23.8735 16.6387 23.6484 16.8641L16.8352 23.6773C16.6071 23.8896 16.3056 24.0052 15.9941 23.9998C15.6826 23.9944 15.3853 23.8685 15.1647 23.6485C14.9447 23.4279 14.8188 23.1306 14.8134 22.8191C14.808 22.5076 14.9236 22.2061 15.1359 21.9781L19.8971 17.2168H7.96997C7.65109 17.2168 7.34528 17.0901 7.11979 16.8647C6.89431 16.6392 6.76764 16.3334 6.76764 16.0145C6.76764 15.6956 6.89431 15.3898 7.11979 15.1643C7.34528 14.9388 7.65109 14.8122 7.96997 14.8122H19.8971L15.1359 10.0509C14.9107 9.82548 14.7842 9.51989 14.7842 9.20127C14.7842 8.88265 14.9107 8.57706 15.1359 8.35163Z" fill="black"/>
</svg>
