<svg width="32" height="32" viewBox="0 0 32 32" fill="none" xmlns="http://www.w3.org/2000/svg">
<path fill-rule="evenodd" clip-rule="evenodd" d="M13.4545 7.45442C14.1296 6.77928 15.0453 6.4 16.0001 6.4C16.9549 6.4 17.8705 6.77928 18.5457 7.45442C19.2208 8.12955 19.6001 9.04522 19.6001 10L12.4001 10V10C12.4001 9.04522 12.7794 8.12955 13.4545 7.45442ZM10.0001 10.005V10C10.0001 8.4087 10.6322 6.88258 11.7574 5.75736C12.8827 4.63214 14.4088 4 16.0001 4C17.5914 4 19.1175 4.63214 20.2427 5.75736C21.3679 6.88258 22.0001 8.4087 22.0001 10V10.005C22.5976 10.0135 23.1316 10.0365 23.5933 10.0986C24.3801 10.2045 25.1337 10.4431 25.7453 11.0547C26.3568 11.6662 26.5955 12.4199 26.7013 13.2066C26.8001 13.9405 26.8 14.857 26.8 15.9209V15.9209L26.8 17.2878C26.8 19.4758 26.8 21.2396 26.6134 22.6268C26.4198 24.0668 26.0054 25.2794 25.0421 26.2421C24.0793 27.2055 22.8667 27.6198 21.4267 27.8135C20.0395 28.0001 18.2758 28 16.0878 28H15.9122C13.7242 28 11.9604 28.0001 10.5732 27.8135C9.13338 27.6198 7.92087 27.2056 6.95819 26.2425C5.99479 25.2797 5.58014 24.0668 5.38647 22.6268C5.1999 21.2396 5.19992 19.4758 5.19996 17.2878L5.19996 16L5.19995 15.9209C5.19989 14.857 5.19984 13.9405 5.29857 13.2066C5.40441 12.4199 5.64308 11.6662 6.25463 11.0547C6.86618 10.4431 7.61981 10.2045 8.40657 10.0986C8.86836 10.0365 9.40245 10.0135 10.0001 10.005ZM13.6001 16C13.6001 15.3373 13.0628 14.8 12.4001 14.8C11.7373 14.8 11.2001 15.3373 11.2001 16V18.4C11.2001 19.0627 11.7373 19.6 12.4001 19.6C13.0628 19.6 13.6001 19.0627 13.6001 18.4V16ZM20.8001 16C20.8001 15.3373 20.2628 14.8 19.6001 14.8C18.9373 14.8 18.4001 15.3373 18.4001 16V18.4C18.4001 19.0627 18.9373 19.6 19.6001 19.6C20.2628 19.6 20.8001 19.0627 20.8001 18.4V16ZM7.95169 12.7517C8.04334 12.6601 8.2065 12.5472 8.72655 12.4772C9.16249 12.4185 9.72084 12.4044 10.5055 12.401C10.7195 12.4001 10.9503 12.4 11.2 12.4H20.8C21.9655 12.4 22.7186 12.4026 23.2734 12.4772C23.7934 12.5472 23.9566 12.6601 24.0482 12.7517C24.1399 12.8434 24.2528 13.0065 24.3228 13.5266C24.3974 14.0814 24.4 14.8344 24.4 16V17.2C24.4 19.4965 24.3974 21.0983 24.2349 22.3068C24.077 23.4809 23.7874 24.103 23.3447 24.5454C22.9023 24.9882 22.2808 25.277 21.1068 25.4349C19.8983 25.5975 18.2965 25.6 16 25.6C13.7034 25.6 12.1016 25.5975 10.8931 25.4349C9.7191 25.277 9.09693 24.9875 8.65452 24.5447C8.27676 24.1673 8.01108 23.6595 7.84315 22.7895C7.81424 22.6397 7.78823 22.4792 7.76505 22.3069C7.60251 21.0983 7.59996 19.4965 7.59996 17.2V16C7.59996 14.8344 7.60251 14.0814 7.67714 13.5266C7.7471 13.0065 7.86003 12.8434 7.95169 12.7517Z" fill="black"/>
</svg>
