<svg width="40" height="40" viewBox="0 0 40 40" fill="none" xmlns="http://www.w3.org/2000/svg">
<g filter="url(#filter0_d_21_1665)">
<circle cx="19.999" cy="16" r="16" fill="#696FFB" fill-opacity="0.2" shape-rendering="crispEdges"/>
</g>
<rect x="6.82251" y="2.82349" width="26.3529" height="26.3529" rx="13.1765" fill="#696FFB" fill-opacity="0.2"/>
<path fill-rule="evenodd" clip-rule="evenodd" d="M21.0554 9.66038C21.7019 9.42491 22.3971 9.3552 23.0775 9.45761C23.7579 9.56002 24.4017 9.8313 24.9503 10.2466C25.4988 10.662 25.9345 11.2082 26.2176 11.8353C26.5007 12.4624 26.6221 13.1504 26.5708 13.8366C26.5194 14.5227 26.297 15.185 25.9238 15.763C25.737 16.0522 25.5155 16.3157 25.265 16.5481C27.4643 17.4519 29.053 19.3931 29.053 21.7647C29.053 22.2195 28.6843 22.5882 28.2294 22.5882C27.7746 22.5882 27.4059 22.2195 27.4059 21.7647C27.4059 19.6049 25.3174 17.6471 22.4648 17.6471C22.3578 17.6471 22.2419 17.6421 22.1192 17.6312C23.3365 18.661 24.1118 20.1078 24.1118 21.7646C24.1118 22.2195 23.7431 22.5882 23.2883 22.5882C22.8335 22.5882 22.4648 22.2195 22.4648 21.7646C22.4648 19.6048 20.3763 17.647 17.5236 17.647C14.671 17.647 12.5825 19.6048 12.5825 21.7646C12.5825 22.2195 12.2138 22.5882 11.759 22.5882C11.3041 22.5882 10.9354 22.2195 10.9354 21.7646C10.9354 19.3931 12.5241 17.4518 14.7233 16.548C13.9131 15.7961 13.4061 14.7219 13.4061 13.5294C13.4061 11.2553 15.2496 9.41174 17.5237 9.41174C18.4507 9.41174 19.3062 9.71807 19.9944 10.235C20.3167 9.99331 20.674 9.7993 21.0554 9.66038ZM21.0736 15.6171C21.5416 15.8913 22.0761 15.9983 22.4556 16C22.4587 16 22.4617 16 22.4647 16C22.8776 15.9999 23.2838 15.8965 23.6463 15.699C24.0089 15.5015 24.3162 15.2164 24.5401 14.8696C24.764 14.5228 24.8975 14.1254 24.9283 13.7137C24.9591 13.302 24.8863 12.8892 24.7164 12.5129C24.5466 12.1367 24.2851 11.8089 23.956 11.5597C23.6269 11.3105 23.2406 11.1478 22.8323 11.0863C22.4241 11.0249 22.007 11.0667 21.6191 11.208C21.4329 11.2758 21.2564 11.3655 21.0929 11.4746C21.4418 12.0793 21.6414 12.781 21.6414 13.5294C21.6414 14.2913 21.4344 15.005 21.0736 15.6171ZM19.3823 11.9016L19.3701 11.8878C18.9176 11.3792 18.2581 11.0588 17.5237 11.0588C16.1593 11.0588 15.0532 12.1649 15.0532 13.5294C15.0532 14.8938 16.1593 16 17.5237 16C18.8882 16 19.9943 14.8938 19.9943 13.5294C19.9943 12.9059 19.7634 12.3363 19.3823 11.9016Z" fill="#696FFB"/>
<defs>
<filter id="filter0_d_21_1665" x="-0.000976562" y="0" width="40" height="40" filterUnits="userSpaceOnUse" color-interpolation-filters="sRGB">
<feFlood flood-opacity="0" result="BackgroundImageFix"/>
<feColorMatrix in="SourceAlpha" type="matrix" values="0 0 0 0 0 0 0 0 0 0 0 0 0 0 0 0 0 0 127 0" result="hardAlpha"/>
<feOffset dy="4"/>
<feGaussianBlur stdDeviation="2"/>
<feComposite in2="hardAlpha" operator="out"/>
<feColorMatrix type="matrix" values="0 0 0 0 0 0 0 0 0 0 0 0 0 0 0 0 0 0 0.08 0"/>
<feBlend mode="normal" in2="BackgroundImageFix" result="effect1_dropShadow_21_1665"/>
<feBlend mode="normal" in="SourceGraphic" in2="effect1_dropShadow_21_1665" result="shape"/>
</filter>
</defs>
</svg>
