<svg width="32" height="32" viewBox="0 0 32 32" fill="none" xmlns="http://www.w3.org/2000/svg">
<path d="M25.8592 16.7919C25.6668 16.5729 25.5607 16.2915 25.5607 16C25.5607 15.7086 25.6668 15.4271 25.8592 15.2081L27.3949 13.4803C27.5642 13.2916 27.6693 13.054 27.6951 12.8018C27.721 12.5496 27.6663 12.2957 27.5389 12.0765L25.1393 7.9251C25.0132 7.70615 24.8212 7.5326 24.5906 7.42919C24.3601 7.32577 24.1028 7.29777 23.8554 7.34918L21.5997 7.80511C21.3127 7.86442 21.0139 7.81662 20.7597 7.67073C20.5055 7.52485 20.3135 7.29096 20.2199 7.01322L19.488 4.81752C19.4075 4.57921 19.2542 4.37222 19.0496 4.22581C18.8451 4.0794 18.5997 4.00098 18.3482 4.00163H13.5488C13.2872 3.98798 13.0283 4.06034 12.8116 4.20766C12.595 4.35499 12.4325 4.56918 12.349 4.81752L11.6771 7.01322C11.5835 7.29096 11.3915 7.52485 11.1373 7.67073C10.8831 7.81662 10.5843 7.86442 10.2973 7.80511L7.98159 7.34918C7.74708 7.31604 7.50801 7.35304 7.2945 7.45553C7.08099 7.55802 6.90258 7.7214 6.78175 7.9251L4.38208 12.0765C4.25149 12.2933 4.19277 12.5458 4.21432 12.7979C4.23587 13.05 4.33658 13.2889 4.50206 13.4803L6.02585 15.2081C6.21821 15.4271 6.3243 15.7086 6.3243 16C6.3243 16.2915 6.21821 16.5729 6.02585 16.7919L4.50206 18.5197C4.33658 18.7111 4.23587 18.95 4.21432 19.2021C4.19277 19.4542 4.25149 19.7067 4.38208 19.9235L6.78175 24.0749C6.90785 24.2938 7.09985 24.4674 7.33038 24.5708C7.56091 24.6742 7.8182 24.7022 8.06558 24.6508L10.3213 24.1949C10.6083 24.1356 10.9071 24.1834 11.1613 24.3293C11.4155 24.4752 11.6075 24.709 11.7011 24.9868L12.433 27.1825C12.5165 27.4308 12.6789 27.645 12.8956 27.7923C13.1123 27.9397 13.3712 28.012 13.6328 27.9984H18.4322C18.6837 27.999 18.9291 27.9206 19.1336 27.7742C19.3382 27.6278 19.4915 27.4208 19.572 27.1825L20.3039 24.9868C20.3975 24.709 20.5895 24.4752 20.8437 24.3293C21.0979 24.1834 21.3967 24.1356 21.6837 24.1949L23.9394 24.6508C24.1868 24.7022 24.4441 24.6742 24.6746 24.5708C24.9051 24.4674 25.0971 24.2938 25.2232 24.0749L27.6229 19.9235C27.7503 19.7043 27.805 19.4504 27.7791 19.1982C27.7533 18.946 27.6482 18.7084 27.4789 18.5197L25.8592 16.7919ZM24.0714 18.3997L25.0313 19.4795L23.4955 22.1432L22.0797 21.8552C21.2155 21.6786 20.3166 21.8254 19.5535 22.2677C18.7905 22.7101 18.2164 23.4172 17.9402 24.2549L17.4843 25.5987H14.4127L13.9808 24.2309C13.7046 23.3932 13.1305 22.6861 12.3675 22.2437C11.6044 21.8014 10.7055 21.6546 9.84134 21.8312L8.42553 22.1192L6.86574 19.4675L7.82561 18.3877C8.41588 17.7277 8.7422 16.8734 8.7422 15.988C8.7422 15.1026 8.41588 14.2483 7.82561 13.5883L6.86574 12.5085L8.40153 9.86883L9.81734 10.1568C10.6815 10.3334 11.5804 10.1866 12.3435 9.74429C13.1065 9.30193 13.6806 8.5948 13.9568 7.75712L14.4127 6.40131H17.4843L17.9402 7.76912C18.2164 8.6068 18.7905 9.31393 19.5535 9.75629C20.3166 10.1986 21.2155 10.3454 22.0797 10.1688L23.4955 9.88083L25.0313 12.5445L24.0714 13.6243C23.4878 14.2827 23.1655 15.1321 23.1655 16.012C23.1655 16.8919 23.4878 17.7413 24.0714 18.3997ZM15.9485 11.2007C14.9993 11.2007 14.0714 11.4821 13.2821 12.0095C12.4929 12.5368 11.8777 13.2864 11.5145 14.1634C11.1512 15.0403 11.0562 16.0053 11.2414 16.9363C11.4266 17.8673 11.8837 18.7225 12.5549 19.3937C13.2261 20.0649 14.0812 20.5219 15.0122 20.7071C15.9432 20.8923 16.9082 20.7973 17.7851 20.434C18.6621 20.0708 19.4117 19.4556 19.939 18.6664C20.4664 17.8771 20.7479 16.9492 20.7479 16C20.7479 14.7271 20.2422 13.5064 19.3422 12.6063C18.4421 11.7063 17.2214 11.2007 15.9485 11.2007ZM15.9485 18.3997C15.4739 18.3997 15.0099 18.2589 14.6153 17.9953C14.2207 17.7316 13.9131 17.3568 13.7315 16.9183C13.5499 16.4798 13.5023 15.9973 13.5949 15.5318C13.6875 15.0664 13.9161 14.6388 14.2517 14.3032C14.5873 13.9676 15.0149 13.739 15.4804 13.6464C15.9458 13.5538 16.4283 13.6014 16.8668 13.783C17.3053 13.9646 17.6801 14.2722 17.9438 14.6668C18.2074 15.0614 18.3482 15.5254 18.3482 16C18.3482 16.6364 18.0954 17.2468 17.6453 17.6968C17.1953 18.1469 16.5849 18.3997 15.9485 18.3997Z" fill="black"/>
</svg>
