<svg width="32" height="32" viewBox="0 0 32 32" fill="none" xmlns="http://www.w3.org/2000/svg">
<g clip-path="url(#clip0_21_1650)">
<path d="M23.8648 8.71294C23.8483 8.59294 23.7432 8.52653 23.6563 8.51921C23.0157 8.47107 22.3751 8.42332 21.7344 8.37595C21.7344 8.37595 20.4599 7.11061 20.32 6.97055C20.18 6.83058 19.9067 6.87316 19.8005 6.90439C19.7849 6.90899 19.5221 6.99011 19.0873 7.12466C18.6615 5.89951 17.9101 4.77365 16.5882 4.77365C16.5518 4.77365 16.5142 4.77513 16.4766 4.77726C16.1007 4.28009 15.635 4.06409 15.2327 4.06409C12.1534 4.06409 10.6823 7.91354 10.221 9.8697C9.02446 10.2405 8.17444 10.5041 8.06586 10.5382C7.39797 10.7477 7.37685 10.7687 7.28915 11.3981C7.22315 11.8745 5.47559 25.3892 5.47559 25.3892L19.093 27.9406L26.4713 26.3445C26.4713 26.3445 23.8811 8.83294 23.8648 8.71294ZM18.3347 7.35743L17.1824 7.71406C17.1828 7.63285 17.1832 7.55296 17.1832 7.46559C17.1832 6.70417 17.0775 6.0911 16.908 5.6051C17.5891 5.69058 18.0427 6.46557 18.3347 7.35743ZM16.063 5.75609C16.2524 6.23058 16.3755 6.91154 16.3755 7.83044C16.3755 7.87746 16.3751 7.92044 16.3747 7.96392C15.6254 8.19603 14.8111 8.44803 13.995 8.70085C14.4532 6.93242 15.3121 6.07828 16.063 5.75609ZM15.1482 4.89003C15.2811 4.89003 15.415 4.93516 15.5431 5.02335C14.5562 5.48773 13.4984 6.65732 13.0517 8.99296L11.1707 9.57554C11.6939 7.79403 12.9364 4.89003 15.1482 4.89003Z" fill="#95BF46"/>
<path d="M23.6563 8.51911C23.0157 8.47098 22.3751 8.42322 21.7345 8.37585C21.7345 8.37585 20.4599 7.11051 20.32 6.97046C20.2677 6.91835 20.1971 6.89163 20.1232 6.88013L19.0936 27.9404L26.4713 26.3444C26.4713 26.3444 23.8811 8.83284 23.8649 8.71284C23.8483 8.59284 23.7432 8.52643 23.6563 8.51911Z" fill="#5E8E3E"/>
<path d="M16.5882 12.596L15.6784 15.3023C15.6784 15.3023 14.8813 14.8769 13.9042 14.8769C12.4718 14.8769 12.3997 15.7758 12.3997 16.0023C12.3997 17.2383 15.6216 17.7119 15.6216 20.607C15.6216 22.8848 14.1769 24.3515 12.229 24.3515C9.89144 24.3515 8.69604 22.8967 8.69604 22.8967L9.32194 20.8288C9.32194 20.8288 10.5507 21.8837 11.5876 21.8837C12.2651 21.8837 12.5406 21.3503 12.5406 20.9605C12.5406 19.3483 9.89736 19.2764 9.89736 16.6271C9.89736 14.3973 11.4978 12.2395 14.7284 12.2395C15.9732 12.2395 16.5882 12.596 16.5882 12.596Z" fill="white"/>
</g>
<defs>
<clipPath id="clip0_21_1650">
<rect width="21.048" height="24" fill="white" transform="translate(5.46899 4)"/>
</clipPath>
</defs>
</svg>
