<svg width="32" height="32" viewBox="0 0 32 32" fill="none" xmlns="http://www.w3.org/2000/svg">
<path d="M7 4C6.20435 4 5.44129 4.31607 4.87868 4.87868C4.31607 5.44129 4 6.20435 4 7L4 25C4 25.7956 4.31607 26.5587 4.87868 27.1213C5.44129 27.6839 6.20435 28 7 28H25C25.7956 28 26.5587 27.6839 27.1213 27.1213C27.6839 26.5587 28 25.7956 28 25V7C28 6.20435 27.6839 5.44129 27.1213 4.87868C26.5587 4.31607 25.7956 4 25 4H7ZM16.339 12.0775C15.463 12.0775 14.9335 12.3235 14.9335 12.967C14.9335 13.669 15.844 13.978 16.9735 14.362C18.8155 14.9845 21.2395 15.8065 21.25 18.8515C21.25 21.802 18.886 23.5 15.445 23.5C13.8927 23.4935 12.3576 23.1741 10.9315 22.561V18.637C12.3205 19.396 14.074 19.957 15.4465 19.957C16.372 19.957 17.0335 19.7095 17.0335 18.9505C17.0335 18.1735 16.0465 17.818 14.854 17.389C13.039 16.735 10.75 15.91 10.75 13.165C10.75 10.2475 12.982 8.5 16.339 8.5C17.7419 8.48745 19.1342 8.74461 20.44 9.2575V13.132C19.183 12.457 17.596 12.0775 16.339 12.0775Z" fill="#696FFB"/>
</svg>
