<svg width="32" height="32" viewBox="0 0 32 32" fill="none" xmlns="http://www.w3.org/2000/svg">
<path d="M19 16.0037C19.0005 16.8697 18.8443 17.7285 18.5387 18.5388C17.7285 18.8443 16.8697 19.0006 16.0037 19H15.9955C15.1296 19.0005 14.2707 18.8443 13.4605 18.5388C13.1553 17.7284 12.999 16.8696 12.9992 16.0037V15.9955C12.9992 15.1015 13.1635 14.2495 13.4605 13.4605C14.2707 13.155 15.1296 12.9987 15.9955 12.9992H16.0037C16.8977 12.9992 17.7535 13.1635 18.5387 13.4605C18.8443 14.2707 19.0005 15.1296 19 15.9955V16.0037ZM27.8357 13.9998H20.8277L25.777 9.04675C25.3895 8.50126 24.957 7.98922 24.484 7.516C24.011 7.04162 23.4989 6.60784 22.9532 6.21925L18.0002 11.1685V4.16425C17.3403 4.05745 16.673 4.00253 16.0045 4H15.9925C15.3122 4 14.6485 4.06225 14.0005 4.16425V11.1722L9.05125 6.223C8.50166 6.60696 7.98783 7.03971 7.516 7.516C7.04036 7.98785 6.60648 8.50001 6.21925 9.04675L11.1685 13.9998H4.16425C4.16425 13.9998 4 15.316 4 15.9955V16.0037C4 16.684 4.06225 17.3515 4.16425 17.9995H11.1722L6.223 22.9487C6.9969 24.046 7.95176 25.0037 9.04675 25.7808L13.9997 20.8315V27.8358C14.6477 27.9408 15.3115 28 15.9917 28H16.0075C16.6877 28 17.3515 27.9408 17.9995 27.8358V20.8315L22.9487 25.7808C23.5 25.4058 24.0115 24.9685 24.4795 24.4915H24.4832C24.961 24.0216 25.3951 23.5093 25.78 22.9608L20.8307 18.0115H27.835C27.94 17.3665 27.9992 16.7065 27.9992 16.0308V16C27.9992 15.3197 27.94 14.656 27.835 14.0117L27.8357 13.9998Z" fill="#FF3200"/>
</svg>
